<?xml version="1.0" encoding="UTF-8"?>
<svg xmlns="http://www.w3.org/2000/svg" xmlns:xlink="http://www.w3.org/1999/xlink" width="32px" height="32px" viewBox="0 0 32 32" version="1.1">
<g id="surface1">
<path style=" stroke:none;fill-rule:nonzero;fill:rgb(25.882353%,29.019608%,37.647059%);fill-opacity:1;" d="M 16.300781 16.90625 L 17.507812 16.90625 L 17.507812 27.773438 L 16.300781 27.773438 Z M 16.300781 16.90625 "/>
<path style=" stroke:none;fill-rule:nonzero;fill:rgb(25.882353%,29.019608%,37.647059%);fill-opacity:1;" d="M 27.347656 3.195312 L 28.199219 4.050781 L 19.144531 13.105469 L 18.289062 12.25 Z M 27.347656 3.195312 "/>
<path style=" stroke:none;fill-rule:nonzero;fill:rgb(25.882353%,29.019608%,37.647059%);fill-opacity:1;" d="M 15.269531 15.269531 L 16.125 16.125 L 4.050781 28.199219 L 3.195312 27.347656 Z M 15.269531 15.269531 "/>
<path style=" stroke:none;fill-rule:nonzero;fill:rgb(25.882353%,29.019608%,37.647059%);fill-opacity:1;" d="M 8.277344 5.007812 L 14.917969 11.648438 L 14.0625 12.503906 L 7.421875 5.859375 Z M 8.277344 5.007812 "/>
<path style=" stroke:none;fill-rule:nonzero;fill:rgb(25.882353%,29.019608%,37.647059%);fill-opacity:1;" d="M 18.539062 15.269531 L 27.597656 24.328125 L 26.742188 25.179688 L 17.6875 16.125 Z M 18.539062 15.269531 "/>
<path style=" stroke:none;fill-rule:nonzero;fill:rgb(26.27451%,69.019608%,36.078431%);fill-opacity:1;" d="M 32 3.019531 C 32 4.6875 30.648438 6.039062 28.980469 6.039062 C 27.3125 6.039062 25.960938 4.6875 25.960938 3.019531 C 25.960938 1.351562 27.3125 0 28.980469 0 C 30.648438 0 32 1.351562 32 3.019531 Z M 32 3.019531 "/>
<path style=" stroke:none;fill-rule:nonzero;fill:rgb(45.098039%,51.372549%,74.901961%);fill-opacity:1;" d="M 19.925781 28.980469 C 19.925781 30.648438 18.574219 32 16.90625 32 C 15.238281 32 13.886719 30.648438 13.886719 28.980469 C 13.886719 27.3125 15.238281 25.960938 16.90625 25.960938 C 18.574219 25.960938 19.925781 27.3125 19.925781 28.980469 Z M 19.925781 28.980469 "/>
<path style=" stroke:none;fill-rule:nonzero;fill:rgb(34.117647%,84.705882%,67.058824%);fill-opacity:1;" d="M 6.039062 27.773438 C 6.039062 29.441406 4.6875 30.792969 3.019531 30.792969 C 1.351562 30.792969 0 29.441406 0 27.773438 C 0 26.105469 1.351562 24.753906 3.019531 24.753906 C 4.6875 24.753906 6.039062 26.105469 6.039062 27.773438 Z M 6.039062 27.773438 "/>
<path style=" stroke:none;fill-rule:nonzero;fill:rgb(84.313725%,35.294118%,29.019608%);fill-opacity:1;" d="M 9.054688 4.832031 C 9.054688 5.832031 8.246094 6.640625 7.246094 6.640625 C 6.246094 6.640625 5.433594 5.832031 5.433594 4.832031 C 5.433594 3.828125 6.246094 3.019531 7.246094 3.019531 C 8.246094 3.019531 9.054688 3.828125 9.054688 4.832031 Z M 9.054688 4.832031 "/>
<path style=" stroke:none;fill-rule:nonzero;fill:rgb(92.156863%,72.941176%,8.627451%);fill-opacity:1;" d="M 28.378906 24.152344 C 28.378906 25.152344 27.566406 25.960938 26.566406 25.960938 C 25.566406 25.960938 24.753906 25.152344 24.753906 24.152344 C 24.753906 23.152344 25.566406 22.339844 26.566406 22.339844 C 27.566406 22.339844 28.378906 23.152344 28.378906 24.152344 Z M 28.378906 24.152344 "/>
<path style=" stroke:none;fill-rule:nonzero;fill:rgb(29.411765%,42.745098%,66.666667%);fill-opacity:1;" d="M 21.132812 14.492188 C 21.132812 16.824219 19.238281 18.71875 16.90625 18.71875 C 14.570312 18.71875 12.679688 16.824219 12.679688 14.492188 C 12.679688 12.15625 14.570312 10.265625 16.90625 10.265625 C 19.238281 10.265625 21.132812 12.15625 21.132812 14.492188 Z M 21.132812 14.492188 "/>
</g>
</svg>
