<?xml version="1.0" encoding="UTF-8"?>
<svg xmlns="http://www.w3.org/2000/svg" xmlns:xlink="http://www.w3.org/1999/xlink" width="32px" height="32px" viewBox="0 0 32 32" version="1.1">
<g id="surface1">
<path style=" stroke:none;fill-rule:nonzero;fill:rgb(13.72549%,9.411765%,8.235294%);fill-opacity:1;" d="M 30 5 L 20.898438 5 C 20.425781 2.667969 18.378906 0.996094 16 0.996094 C 13.621094 0.996094 11.574219 2.667969 11.101562 5 L 2 5 C 1.449219 5 1 5.449219 1 6 C 1 6.550781 1.449219 7 2 7 L 30 7 C 30.550781 7 31 6.550781 31 6 C 31 5.449219 30.550781 5 30 5 Z M 16 3 C 17.269531 3.003906 18.398438 3.804688 18.820312 5 L 13.179688 5 C 13.601562 3.804688 14.730469 3.003906 16 3 Z M 26.378906 9.078125 C 26.007812 8.921875 25.578125 9.007812 25.289062 9.289062 C 25.101562 9.480469 25 9.734375 25 10 C 25 10.550781 25.449219 11 26 11 C 26.550781 11 27 10.550781 27 10 C 26.996094 9.734375 26.894531 9.480469 26.710938 9.289062 C 26.613281 9.199219 26.503906 9.128906 26.378906 9.078125 Z M 26 13 C 25.449219 13 25 13.449219 25 14 L 25 17 C 25 17.550781 25.449219 18 26 18 C 26.550781 18 27 17.550781 27 17 L 27 14 C 27 13.449219 26.550781 13 26 13 Z M 26 20 C 25.449219 20 25 20.449219 25 21 L 25 28 C 25 28.550781 24.550781 29 24 29 L 8 29 C 7.449219 29 7 28.550781 7 28 L 7 10 C 7 9.449219 6.550781 9 6 9 C 5.449219 9 5 9.449219 5 10 L 5 28 C 5 29.65625 6.34375 31 8 31 L 24 31 C 25.65625 31 27 29.65625 27 28 L 27 21 C 27 20.449219 26.550781 20 26 20 Z M 26 20 "/>
<path style=" stroke:none;fill-rule:nonzero;fill:rgb(13.72549%,9.411765%,8.235294%);fill-opacity:1;" d="M 12 24 L 12 11 C 12 10.449219 11.550781 10 11 10 C 10.449219 10 10 10.449219 10 11 L 10 24 C 10 24.550781 10.449219 25 11 25 C 11.550781 25 12 24.550781 12 24 Z M 17 24 L 17 11 C 17 10.449219 16.550781 10 16 10 C 15.449219 10 15 10.449219 15 11 L 15 24 C 15 24.550781 15.449219 25 16 25 C 16.550781 25 17 24.550781 17 24 Z M 22 24 L 22 11 C 22 10.449219 21.550781 10 21 10 C 20.449219 10 20 10.449219 20 11 L 20 24 C 20 24.550781 20.449219 25 21 25 C 21.550781 25 22 24.550781 22 24 Z M 22 24 "/>
</g>
</svg>
