<svg id="svg" version="1.1" xmlns="http://www.w3.org/2000/svg" xmlns:xlink="http://www.w3.org/1999/xlink" width="400" height="175.15625" viewBox="0, 0, 400,175.15625"><g id="svgg"><path id="path0" d="M175.167 32.500 L 175.167 35.000 105.125 35.041 L 35.083 35.083 35.041 87.458 L 34.999 139.833 105.080 139.833 L 175.161 139.833 175.208 144.542 C 175.234 147.131,175.273 122.419,175.294 89.625 C 175.316 56.831,175.296 30.000,175.250 30.000 C 175.204 30.000,175.167 31.125,175.167 32.500 M109.369 58.625 L 109.417 71.917 109.859 72.750 C 111.850 76.497,118.404 76.209,119.959 72.307 C 120.222 71.647,120.252 70.436,120.297 58.458 L 120.347 45.333 124.007 45.333 L 127.667 45.333 127.665 58.708 C 127.664 72.341,127.624 73.349,127.009 75.096 C 124.137 83.270,107.231 84.038,103.103 76.182 C 101.883 73.860,101.940 74.649,101.874 59.208 L 101.814 45.333 105.568 45.333 L 109.322 45.333 109.369 58.625 M143.693 47.125 C 144.737 49.356,145.421 50.790,148.051 56.262 C 150.480 61.314,151.227 63.023,152.453 66.333 L 153.348 68.750 153.262 67.667 C 153.042 64.908,152.835 58.156,152.783 52.042 L 152.725 45.333 156.197 45.333 L 159.668 45.333 159.626 63.125 L 159.583 80.917 155.811 80.961 L 152.039 81.006 151.329 79.378 C 150.537 77.563,148.848 73.784,147.248 70.250 C 145.700 66.829,143.353 61.403,142.330 58.879 C 141.839 57.666,141.418 56.693,141.394 56.717 C 141.370 56.741,141.416 59.195,141.497 62.172 C 141.577 65.148,141.667 70.583,141.696 74.250 L 141.750 80.917 138.250 80.917 L 134.750 80.917 134.707 63.333 C 134.683 53.663,134.700 45.656,134.743 45.542 C 134.804 45.383,135.780 45.333,138.839 45.333 L 142.855 45.333 143.693 47.125 M175.167 63.167 L 175.167 81.000 171.417 81.000 L 167.667 81.000 167.667 63.167 L 167.667 45.333 171.417 45.333 L 175.167 45.333 175.167 63.167 M158.544 84.289 C 161.347 85.402,161.587 89.600,158.941 91.236 C 155.861 93.140,152.062 90.240,153.074 86.757 C 153.766 84.379,156.108 83.322,158.544 84.289 M169.877 84.442 C 172.307 85.662,172.625 89.059,170.481 90.894 C 167.162 93.735,162.288 89.657,164.492 85.883 C 165.586 84.008,167.821 83.411,169.877 84.442 M109.561 94.958 C 109.658 95.295,111.455 103.445,112.565 108.583 C 113.377 112.340,114.056 116.265,114.266 118.417 L 114.397 119.750 114.542 118.833 C 115.505 112.739,116.043 109.859,117.156 104.833 C 117.877 101.579,118.673 97.960,118.926 96.792 L 119.384 94.667 123.352 94.667 L 127.320 94.667 127.483 95.292 C 127.572 95.635,128.029 97.792,128.500 100.083 C 128.970 102.375,129.688 105.862,130.095 107.833 C 130.856 111.519,131.714 116.444,131.919 118.302 C 131.983 118.880,132.066 119.322,132.105 119.284 C 132.143 119.246,132.546 116.928,133.000 114.133 C 133.454 111.338,134.308 106.846,134.898 104.150 C 135.488 101.455,136.183 98.237,136.444 97.000 L 136.917 94.750 140.708 94.705 C 144.072 94.665,144.500 94.690,144.500 94.924 C 144.500 95.069,143.908 97.639,143.185 100.635 C 142.462 103.632,141.215 108.821,140.415 112.167 C 139.614 115.513,138.600 119.712,138.159 121.500 C 137.719 123.287,137.086 125.950,136.752 127.417 C 136.418 128.883,136.107 130.215,136.061 130.375 C 135.968 130.699,128.291 130.836,128.094 130.517 C 128.012 130.384,127.272 127.088,124.989 116.690 C 124.214 113.159,123.571 109.484,123.403 107.621 C 123.339 106.908,123.266 106.345,123.240 106.371 C 123.215 106.396,122.886 108.217,122.510 110.417 C 122.134 112.617,121.441 116.329,120.972 118.667 C 120.502 121.004,119.772 124.642,119.350 126.750 L 118.583 130.583 114.472 130.628 L 110.361 130.672 109.430 126.795 C 108.919 124.662,107.899 120.367,107.165 117.250 C 105.833 111.592,103.946 103.641,102.564 97.856 C 102.162 96.173,101.833 94.767,101.833 94.731 C 101.833 94.466,109.485 94.691,109.561 94.958 M156.869 107.875 L 156.917 121.083 157.315 121.965 C 158.991 125.674,165.677 125.669,167.355 121.957 L 167.750 121.083 167.797 107.875 L 167.845 94.667 171.506 94.667 L 175.167 94.667 175.164 108.292 C 175.161 119.659,175.120 122.110,174.915 123.083 C 173.932 127.745,169.618 130.675,163.333 130.952 C 156.071 131.271,151.069 128.464,149.730 123.316 C 149.453 122.251,149.140 95.578,149.397 94.909 C 149.474 94.707,150.101 94.667,153.156 94.667 L 156.822 94.667 156.869 107.875 " stroke="none" fill="#fbfbfb" fill-rule="evenodd"></path><path id="path1" d="M0.000 87.500 L 0.000 175.000 87.583 175.000 L 175.167 175.000 175.167 157.500 L 175.167 140.000 105.083 140.000 L 35.000 140.000 35.000 87.500 L 35.000 35.000 105.083 35.000 L 175.167 35.000 175.167 17.500 L 175.167 0.000 87.583 0.000 L 0.000 0.000 0.000 87.500 M207.346 6.602 C 206.059 6.882,206.109 6.840,206.363 7.435 C 206.513 7.787,206.593 10.285,206.659 16.721 L 206.750 25.526 207.392 26.114 C 208.015 26.685,209.975 26.914,210.421 26.467 C 210.683 26.206,210.076 24.763,209.663 24.666 C 209.053 24.522,209.043 24.375,209.003 15.417 C 208.983 10.925,208.916 7.068,208.854 6.846 C 208.710 6.332,208.638 6.320,207.346 6.602 M337.013 6.601 C 335.713 6.885,335.745 6.855,336.008 7.533 C 336.169 7.947,336.236 10.191,336.280 16.583 C 336.344 25.880,336.336 25.801,337.327 26.387 C 337.800 26.666,339.361 26.773,339.907 26.564 C 340.465 26.350,339.894 24.667,339.264 24.667 C 338.676 24.667,338.671 24.601,338.668 15.750 C 338.665 8.115,338.575 6.297,338.200 6.350 C 338.136 6.359,337.602 6.472,337.013 6.601 M213.352 7.260 C 212.422 8.043,212.512 9.374,213.538 9.999 C 214.883 10.820,216.333 10.033,216.333 8.483 C 216.333 6.979,214.554 6.249,213.352 7.260 M301.368 7.247 C 300.473 7.999,300.534 9.310,301.494 9.958 C 303.397 11.245,305.546 8.717,303.799 7.247 C 303.441 6.945,303.111 6.833,302.583 6.833 C 302.055 6.833,301.726 6.945,301.368 7.247 M329.534 7.247 C 327.884 8.636,329.729 11.085,331.670 10.082 C 332.291 9.761,332.500 9.362,332.500 8.498 C 332.500 7.013,330.710 6.258,329.534 7.247 M343.005 7.271 C 342.521 7.678,342.488 7.775,342.534 8.641 C 342.658 10.982,346.000 10.884,346.000 8.539 C 346.000 6.992,344.228 6.242,343.005 7.271 M185.964 16.625 C 185.909 27.191,185.993 26.646,184.257 27.696 C 183.164 28.358,183.168 28.336,183.970 29.195 L 184.606 29.877 185.261 29.654 C 186.683 29.169,187.852 27.932,188.349 26.387 C 188.497 25.927,188.573 23.212,188.624 16.625 L 188.694 7.500 187.352 7.500 L 186.011 7.500 185.964 16.625 M256.101 8.375 C 255.862 10.388,255.141 18.603,255.001 20.917 C 254.918 22.292,254.797 24.110,254.733 24.958 L 254.617 26.500 255.790 26.500 L 256.963 26.500 257.055 25.958 C 257.106 25.660,257.229 24.142,257.327 22.583 C 257.802 15.061,258.033 11.877,258.137 11.452 C 258.251 10.981,258.432 11.560,260.570 19.250 C 260.901 20.442,261.500 22.542,261.902 23.917 L 262.631 26.417 263.723 26.466 L 264.815 26.515 264.926 25.882 C 264.987 25.535,265.522 23.675,266.115 21.750 C 266.708 19.825,267.299 17.762,267.428 17.167 C 267.855 15.201,269.315 10.699,269.320 11.333 C 269.323 11.654,269.478 13.979,269.666 16.500 C 269.853 19.021,270.090 22.302,270.192 23.792 L 270.377 26.500 271.630 26.500 L 272.883 26.500 272.770 24.958 C 272.707 24.110,272.587 22.254,272.504 20.833 C 272.357 18.351,271.604 9.675,271.408 8.208 L 271.313 7.500 269.497 7.500 L 267.682 7.500 267.572 8.125 C 267.512 8.469,266.918 10.625,266.251 12.917 C 265.584 15.208,264.944 17.458,264.829 17.917 C 264.714 18.375,264.419 19.512,264.172 20.444 L 263.724 22.139 263.464 21.111 C 262.264 16.355,262.085 15.707,260.420 10.083 C 260.203 9.350,259.979 8.469,259.922 8.125 L 259.818 7.500 258.012 7.500 L 256.205 7.500 256.101 8.375 M236.818 12.311 C 234.380 12.834,232.987 15.868,234.148 18.126 C 234.829 19.449,235.237 19.654,239.211 20.674 C 241.088 21.156,241.597 23.122,240.177 24.407 C 239.513 25.008,236.856 24.851,235.318 24.121 L 234.090 23.538 233.629 24.346 C 233.016 25.418,233.001 25.381,234.302 25.963 C 239.050 28.086,243.500 26.290,243.500 22.250 C 243.500 19.854,242.524 18.931,239.104 18.092 C 236.422 17.434,235.764 16.762,236.445 15.379 C 237.090 14.068,238.591 13.797,240.826 14.587 C 242.233 15.084,242.257 15.075,242.669 13.825 C 242.925 13.049,242.876 12.985,241.667 12.531 C 240.984 12.274,237.686 12.124,236.818 12.311 M379.947 12.338 C 377.664 12.917,376.432 15.499,377.319 17.848 C 377.857 19.273,379.076 20.024,381.492 20.419 C 383.756 20.790,384.805 22.063,384.078 23.558 C 383.401 24.950,380.894 25.208,378.606 24.121 L 377.388 23.543 376.944 24.278 C 376.343 25.273,376.368 25.363,377.377 25.875 C 381.892 28.161,386.817 26.291,386.830 22.286 C 386.837 19.882,385.831 18.943,382.333 18.089 C 380.212 17.572,379.882 17.401,379.652 16.704 C 378.962 14.615,381.061 13.577,384.000 14.553 C 384.687 14.782,385.307 14.933,385.377 14.890 C 385.567 14.772,386.167 13.549,386.167 13.279 C 386.167 12.540,381.774 11.875,379.947 12.338 M192.625 12.534 L 192.000 12.700 192.003 17.642 C 192.008 24.812,192.167 25.542,193.908 26.412 C 195.730 27.322,198.360 26.974,199.687 25.647 C 200.042 25.291,200.333 25.095,200.333 25.211 C 200.333 25.568,201.100 26.575,201.559 26.820 C 201.973 27.042,202.021 27.020,202.656 26.318 C 203.446 25.443,203.448 25.434,202.917 24.803 L 202.500 24.308 202.500 18.414 C 202.500 11.815,202.603 12.248,201.090 12.511 L 200.000 12.701 200.000 17.660 L 200.000 22.620 199.338 23.372 C 198.516 24.306,197.778 24.667,196.691 24.667 C 194.545 24.667,194.500 24.524,194.500 17.766 L 194.500 12.333 193.875 12.351 C 193.531 12.360,192.969 12.442,192.625 12.534 M213.958 12.455 L 213.333 12.520 213.333 19.510 L 213.333 26.500 214.583 26.500 L 215.833 26.500 215.833 19.417 L 215.833 12.333 215.208 12.361 C 214.865 12.377,214.302 12.419,213.958 12.455 M220.902 12.490 C 219.964 12.715,220.000 12.505,220.003 17.718 C 220.007 23.344,220.120 24.453,220.784 25.397 C 222.096 27.262,225.685 27.470,227.592 25.791 C 228.008 25.425,228.369 25.154,228.395 25.188 C 228.421 25.222,228.614 25.535,228.823 25.884 C 229.560 27.108,229.903 27.176,230.803 26.276 C 231.381 25.698,231.538 25.440,231.415 25.273 C 230.524 24.054,230.587 24.566,230.534 18.198 L 230.484 12.298 229.700 12.411 C 229.269 12.473,228.748 12.564,228.542 12.613 L 228.167 12.703 228.167 17.485 L 228.167 22.268 227.680 23.036 C 226.771 24.469,224.834 25.106,223.495 24.414 C 222.530 23.915,222.500 23.714,222.500 17.758 L 222.500 12.333 221.958 12.350 C 221.660 12.360,221.185 12.423,220.902 12.490 M277.626 12.730 C 275.064 13.650,274.715 14.047,275.514 15.134 C 276.124 15.963,276.156 15.967,277.053 15.367 C 279.690 13.602,282.500 14.149,282.500 16.428 L 282.500 17.667 281.740 17.667 C 276.632 17.667,273.701 20.379,274.753 24.131 C 275.552 26.978,280.300 27.843,282.396 25.524 L 282.708 25.178 283.066 25.710 C 283.401 26.207,284.391 27.000,284.676 27.000 C 284.836 27.000,286.000 25.389,286.000 25.166 C 286.000 25.075,285.939 25.000,285.865 25.000 C 285.071 25.000,285.000 24.558,285.000 19.603 C 285.000 14.211,284.935 13.918,283.515 12.917 C 282.496 12.198,279.383 12.100,277.626 12.730 M301.958 12.455 L 301.333 12.520 301.333 19.510 L 301.333 26.500 302.583 26.500 L 303.833 26.500 303.833 19.417 L 303.833 12.333 303.208 12.361 C 302.865 12.377,302.302 12.419,301.958 12.455 M308.276 12.538 C 307.664 12.700,307.640 12.731,307.758 13.229 C 307.826 13.515,307.927 16.600,307.982 20.083 L 308.083 26.417 309.208 26.466 L 310.333 26.515 310.333 21.435 L 310.333 16.356 311.055 15.765 C 312.238 14.795,313.446 14.455,314.605 14.766 C 315.278 14.947,315.333 15.424,315.333 21.091 L 315.333 26.500 316.583 26.500 L 317.833 26.500 317.833 21.514 L 317.833 16.528 318.625 15.825 C 320.443 14.210,322.268 14.056,322.665 15.485 C 322.759 15.824,322.832 18.342,322.832 21.292 L 322.833 26.500 324.083 26.500 L 325.333 26.500 325.331 21.125 C 325.328 15.120,325.214 14.168,324.394 13.306 C 322.970 11.808,320.334 11.963,318.162 13.673 L 317.575 14.136 317.048 13.509 C 315.650 11.844,313.151 11.883,310.875 13.607 C 310.375 13.985,310.333 13.992,310.333 13.700 C 310.333 12.435,309.800 12.134,308.276 12.538 M330.125 12.455 L 329.500 12.520 329.500 19.510 L 329.500 26.500 330.750 26.500 L 332.000 26.500 332.000 19.417 L 332.000 12.333 331.375 12.361 C 331.031 12.377,330.469 12.419,330.125 12.455 M343.583 12.482 L 342.917 12.583 342.917 19.500 L 342.917 26.417 344.208 26.465 L 345.500 26.514 345.500 19.424 L 345.500 12.333 344.875 12.357 C 344.531 12.370,343.950 12.426,343.583 12.482 M351.951 12.653 C 350.913 12.992,349.167 13.975,349.167 14.219 C 349.167 14.301,349.335 14.576,349.542 14.829 C 349.748 15.082,350.003 15.430,350.108 15.603 C 350.268 15.866,350.349 15.883,350.608 15.710 C 353.911 13.505,356.833 14.030,356.833 16.828 L 356.833 17.667 356.042 17.670 C 351.255 17.690,348.369 19.899,348.717 23.277 C 349.075 26.742,353.515 28.069,356.460 25.591 C 357.019 25.121,357.167 25.073,357.167 25.359 C 357.167 26.271,358.868 27.280,359.349 26.653 C 360.084 25.697,360.232 25.161,359.838 24.884 C 359.201 24.438,359.136 23.920,359.158 19.431 L 359.179 15.112 358.740 14.214 C 357.866 12.427,354.801 11.723,351.951 12.653 M363.625 12.600 C 363.190 12.734,362.833 12.869,362.833 12.901 C 362.833 12.932,362.946 13.277,363.083 13.667 C 363.288 14.247,363.333 15.475,363.333 20.438 L 363.333 26.500 364.583 26.500 L 365.833 26.500 365.833 21.343 L 365.833 16.185 366.735 15.539 C 368.297 14.421,369.919 14.237,370.764 15.083 L 371.167 15.485 371.167 20.992 L 371.167 26.500 372.417 26.500 L 373.667 26.500 373.663 20.792 C 373.659 14.513,373.640 14.382,372.576 13.273 C 371.209 11.848,368.525 11.973,366.458 13.557 C 365.689 14.147,365.667 14.153,365.667 13.774 C 365.667 12.401,365.181 12.122,363.625 12.600 M287.747 12.672 C 287.684 12.774,287.944 13.283,288.324 13.803 C 288.704 14.324,289.423 15.350,289.920 16.083 C 290.418 16.817,291.051 17.729,291.328 18.110 L 291.831 18.804 291.104 19.777 C 290.704 20.312,290.246 21.012,290.086 21.333 C 289.925 21.654,289.663 22.067,289.502 22.250 C 289.004 22.817,286.833 26.127,286.833 26.319 C 286.833 26.790,289.660 26.532,289.874 26.042 C 289.983 25.790,290.457 25.021,290.927 24.333 C 291.396 23.646,292.060 22.615,292.402 22.042 C 292.744 21.469,293.051 21.000,293.084 21.000 C 293.174 21.000,295.000 23.617,295.000 23.747 C 295.000 23.809,295.393 24.454,295.873 25.180 L 296.746 26.500 298.113 26.500 C 299.813 26.500,299.846 26.442,298.874 25.149 C 298.439 24.571,297.858 23.742,297.583 23.307 C 297.308 22.872,296.611 21.864,296.033 21.067 C 294.218 18.562,294.132 19.226,296.792 15.244 C 298.703 12.383,298.697 12.474,296.958 12.535 L 295.583 12.583 295.207 13.333 C 295.000 13.746,294.619 14.421,294.360 14.833 C 294.100 15.246,293.716 15.870,293.506 16.221 L 293.124 16.859 292.813 16.388 C 292.642 16.129,292.502 15.864,292.501 15.800 C 292.500 15.736,292.061 14.986,291.523 14.133 L 290.547 12.583 289.204 12.535 C 288.351 12.505,287.819 12.554,287.747 12.672 M246.000 19.000 L 246.000 20.167 248.833 20.167 L 251.667 20.167 251.667 19.000 L 251.667 17.833 248.833 17.833 L 246.000 17.833 246.000 19.000 M390.000 19.000 L 390.000 20.167 392.667 20.167 L 395.333 20.167 395.333 19.000 L 395.333 17.833 392.667 17.833 L 390.000 17.833 390.000 19.000 M282.236 19.601 C 282.453 19.684,282.500 20.003,282.500 21.373 L 282.500 23.044 281.789 23.755 C 279.559 25.985,276.594 24.621,277.328 21.702 C 277.726 20.118,280.495 18.933,282.236 19.601 M356.712 19.684 C 356.733 19.720,356.726 20.490,356.696 21.395 L 356.643 23.040 355.849 23.834 C 354.348 25.334,352.194 25.205,351.572 23.577 C 350.876 21.754,352.031 19.898,354.013 19.658 C 355.045 19.533,356.634 19.549,356.712 19.684 M346.473 36.545 C 344.092 37.775,343.620 41.237,345.551 43.307 C 347.480 45.375,351.775 44.343,352.510 41.634 C 353.584 37.680,350.048 34.699,346.473 36.545 M357.833 36.212 C 355.822 37.312,355.096 38.362,355.103 40.167 C 355.113 42.698,356.757 44.332,359.298 44.333 C 364.847 44.335,365.057 36.251,359.513 36.034 C 358.675 36.001,358.110 36.061,357.833 36.212 M280.194 44.339 C 278.062 44.609,275.301 45.947,273.525 47.572 C 270.307 50.518,269.466 56.096,271.619 60.208 C 273.123 63.081,275.160 64.318,281.000 65.906 C 282.237 66.243,283.625 66.627,284.083 66.761 C 288.373 68.010,288.815 73.219,284.783 75.003 C 282.071 76.202,276.653 75.402,272.696 73.218 C 272.116 72.898,271.616 72.662,271.586 72.693 C 271.449 72.832,270.000 75.801,270.000 75.942 C 270.000 76.028,269.739 76.583,269.420 77.174 C 268.662 78.581,268.654 78.550,269.958 79.171 C 280.761 84.315,292.602 81.749,295.362 73.667 C 296.878 69.228,295.573 64.079,292.291 61.549 C 291.153 60.671,288.299 59.167,287.773 59.167 C 287.158 59.167,281.270 57.321,280.435 56.866 C 279.017 56.094,278.515 54.989,278.904 53.492 C 279.682 50.491,283.451 49.557,287.892 51.266 C 288.703 51.578,289.427 51.833,289.500 51.833 C 289.573 51.833,290.143 52.143,290.767 52.523 C 291.853 53.182,291.911 53.198,292.128 52.898 C 293.094 51.558,295.327 48.038,295.330 47.852 C 295.339 47.227,291.301 45.311,288.593 44.654 C 287.017 44.272,282.167 44.090,280.194 44.339 M206.896 45.125 L 203.708 45.174 203.124 46.879 C 202.803 47.816,202.313 49.258,202.035 50.083 C 200.985 53.203,199.918 56.313,199.290 58.083 C 198.092 61.460,196.650 65.907,196.001 68.228 L 195.728 69.207 195.376 67.812 C 195.182 67.044,194.979 66.192,194.924 65.917 C 194.868 65.642,194.292 63.767,193.643 61.750 C 192.559 58.384,191.359 54.619,189.206 47.833 L 188.387 45.250 184.277 45.205 C 182.016 45.181,180.167 45.218,180.167 45.289 C 180.167 45.359,180.684 46.917,181.317 48.750 C 181.950 50.583,182.767 52.983,183.134 54.083 C 184.093 56.966,184.880 59.279,186.252 63.250 C 186.918 65.175,187.513 66.975,187.575 67.250 C 187.637 67.525,188.066 68.800,188.527 70.083 C 188.989 71.367,189.520 72.904,189.707 73.500 C 189.894 74.096,190.573 76.104,191.215 77.962 L 192.383 81.340 195.796 81.295 L 199.210 81.250 200.249 78.167 C 200.821 76.471,201.575 74.258,201.926 73.250 C 202.277 72.242,203.119 69.804,203.797 67.833 C 204.475 65.862,205.579 62.675,206.248 60.750 C 206.918 58.825,207.636 56.725,207.844 56.083 C 208.052 55.442,208.590 53.942,209.039 52.750 C 209.488 51.558,209.919 50.283,209.998 49.917 C 210.076 49.550,210.446 48.429,210.820 47.425 C 211.697 45.071,211.696 44.990,210.792 45.038 C 210.402 45.059,208.649 45.098,206.896 45.125 M241.333 63.114 L 241.333 81.167 245.000 81.167 L 248.667 81.167 248.667 73.737 L 248.667 66.307 249.208 66.423 C 249.506 66.487,249.808 66.574,249.879 66.616 C 250.126 66.761,252.373 69.752,252.514 70.122 C 252.592 70.326,253.122 71.264,253.693 72.205 C 254.263 73.146,254.980 74.404,255.286 75.000 C 255.593 75.596,256.111 76.533,256.438 77.083 C 256.765 77.633,257.336 78.646,257.708 79.333 C 258.080 80.021,258.466 80.715,258.565 80.875 C 258.774 81.210,267.210 81.334,267.414 81.005 C 267.534 80.811,267.228 80.198,266.265 78.701 C 265.869 78.086,265.258 77.058,264.908 76.417 C 264.557 75.775,263.872 74.638,263.385 73.891 C 262.898 73.144,262.500 72.477,262.500 72.410 C 262.500 72.304,261.229 70.322,259.390 67.562 C 259.076 67.091,258.598 66.536,258.327 66.328 C 257.676 65.830,257.703 65.728,258.510 65.620 C 264.822 64.773,267.660 54.183,263.044 48.699 C 260.429 45.592,258.880 45.203,248.792 45.122 L 241.333 45.062 241.333 63.114 M350.261 46.042 C 350.100 46.615,349.425 48.733,348.760 50.750 C 347.249 55.330,345.429 60.891,343.740 66.083 C 343.025 68.283,342.048 71.246,341.569 72.667 C 341.091 74.087,340.533 75.813,340.330 76.500 C 340.126 77.188,339.744 78.376,339.480 79.142 C 338.709 81.377,338.373 81.180,342.872 81.128 L 346.743 81.083 347.134 79.667 C 347.349 78.887,347.907 76.994,348.375 75.458 L 349.225 72.667 354.336 72.667 L 359.447 72.667 359.735 73.708 C 359.894 74.281,360.454 76.175,360.980 77.917 L 361.937 81.083 365.832 81.128 C 367.974 81.153,369.787 81.113,369.861 81.039 C 369.935 80.965,369.439 79.182,368.759 77.077 C 365.552 67.148,364.999 65.405,365.002 65.250 C 365.004 65.158,364.449 63.358,363.769 61.250 C 362.465 57.204,360.475 50.904,359.334 47.208 L 358.652 45.000 354.603 45.000 L 350.553 45.000 350.261 46.042 M215.167 63.167 L 215.167 81.167 225.667 81.167 L 236.167 81.167 236.167 77.917 L 236.167 74.667 229.417 74.667 L 222.667 74.667 222.667 70.000 L 222.667 65.333 227.750 65.333 L 232.833 65.333 232.833 62.250 L 232.833 59.167 227.667 59.167 L 222.500 59.167 222.500 55.252 L 222.500 51.337 228.708 51.294 L 234.917 51.250 234.961 50.583 C 235.002 49.972,235.562 46.424,235.757 45.542 L 235.840 45.167 225.503 45.167 L 215.167 45.167 215.167 63.167 M302.167 63.170 L 302.167 81.173 306.042 81.128 L 309.917 81.083 309.959 63.125 L 310.001 45.167 306.084 45.167 L 302.167 45.167 302.167 63.170 M314.333 48.333 L 314.333 51.500 318.667 51.500 L 323.000 51.500 323.000 66.333 L 323.000 81.167 326.750 81.167 L 330.500 81.167 330.500 66.333 L 330.500 51.500 334.833 51.500 C 337.217 51.500,339.167 51.435,339.167 51.355 C 339.167 51.275,339.348 50.319,339.569 49.230 C 339.791 48.141,340.023 46.781,340.086 46.208 L 340.199 45.167 327.266 45.167 L 314.333 45.167 314.333 48.333 M370.000 48.333 L 370.000 51.500 374.333 51.500 L 378.667 51.500 378.667 66.333 L 378.667 81.167 382.500 81.167 L 386.333 81.167 386.333 66.333 L 386.333 51.500 390.566 51.500 C 395.188 51.500,395.000 51.542,395.000 50.519 C 395.000 50.269,395.225 49.036,395.500 47.777 C 395.775 46.519,396.000 45.417,396.000 45.328 C 396.000 45.225,391.280 45.167,383.000 45.167 L 370.000 45.167 370.000 48.333 M102.071 45.556 C 101.742 46.414,102.103 73.462,102.458 74.512 C 104.020 79.133,108.134 81.426,114.833 81.408 C 120.822 81.392,124.754 79.499,126.583 75.750 C 127.513 73.844,127.500 74.085,127.500 59.128 L 127.500 45.327 123.958 45.372 L 120.417 45.417 120.333 58.667 L 120.250 71.917 119.854 72.793 C 118.479 75.834,112.894 76.535,110.566 73.959 C 109.166 72.409,109.256 73.431,109.201 58.542 L 109.152 45.333 105.654 45.333 C 102.891 45.333,102.138 45.380,102.071 45.556 M134.947 45.441 C 134.885 45.504,134.833 53.493,134.833 63.194 L 134.833 80.833 138.246 80.833 L 141.658 80.833 141.572 74.875 C 141.524 71.598,141.412 66.000,141.322 62.435 C 141.231 58.870,141.187 55.924,141.223 55.888 C 141.259 55.852,141.462 56.294,141.674 56.870 C 142.572 59.313,145.528 66.153,149.330 74.583 C 150.074 76.233,150.998 78.313,151.383 79.205 L 152.083 80.827 155.792 80.830 L 159.500 80.833 159.500 63.083 L 159.500 45.333 156.143 45.333 L 152.786 45.333 152.901 53.375 C 153.007 60.684,153.138 64.317,153.434 68.083 C 153.554 69.604,153.384 69.604,152.930 68.083 C 152.432 66.413,150.380 61.417,148.996 58.502 C 148.278 56.988,146.568 53.425,145.198 50.583 L 142.707 45.417 138.884 45.372 C 136.782 45.347,135.010 45.379,134.947 45.441 M167.667 63.083 L 167.667 80.833 171.417 80.833 L 175.167 80.833 175.167 63.083 L 175.167 45.333 171.417 45.333 L 167.667 45.333 167.667 63.083 M254.388 51.613 C 256.484 52.079,257.500 53.471,257.500 55.878 C 257.500 59.282,255.735 60.500,250.803 60.500 L 248.667 60.500 248.667 55.813 L 248.667 51.126 250.958 51.243 C 252.219 51.308,253.762 51.474,254.388 51.613 M354.827 55.583 C 355.139 57.341,356.264 61.895,356.919 64.057 C 357.239 65.111,357.500 66.092,357.500 66.236 C 357.500 66.468,357.104 66.500,354.268 66.500 L 351.037 66.500 351.665 64.458 C 352.010 63.335,352.342 62.154,352.402 61.833 C 352.726 60.103,354.431 53.900,354.518 54.138 C 354.574 54.291,354.713 54.942,354.827 55.583 M155.250 84.396 C 154.257 84.865,153.804 85.325,153.347 86.333 C 151.630 90.121,156.508 93.551,159.492 90.655 C 162.599 87.640,159.153 82.556,155.250 84.396 M166.775 84.161 C 162.725 85.459,163.648 91.738,167.887 91.726 C 171.774 91.715,173.258 86.648,169.969 84.615 C 169.125 84.093,167.643 83.883,166.775 84.161 M349.010 94.003 C 343.839 94.727,339.199 98.250,337.035 103.096 C 334.051 109.777,334.596 119.011,338.293 124.437 C 339.006 125.484,341.531 128.167,341.803 128.167 C 341.893 128.167,342.348 128.423,342.814 128.737 C 346.890 131.480,355.090 131.460,361.167 128.693 L 363.250 127.744 363.293 119.039 L 363.336 110.333 356.238 110.333 L 349.140 110.333 349.231 110.792 C 349.513 112.211,349.994 115.176,350.035 115.750 L 350.083 116.417 352.792 116.462 L 355.500 116.508 355.500 120.381 C 355.500 124.826,355.629 124.483,353.790 124.916 C 351.242 125.517,349.122 125.087,346.595 123.457 C 343.089 121.195,342.370 107.707,345.509 103.080 C 347.722 99.818,353.651 99.045,357.170 101.559 C 357.445 101.756,357.978 102.139,358.354 102.411 L 359.038 102.905 359.478 102.369 C 359.719 102.075,360.494 101.181,361.199 100.382 C 363.077 98.255,363.072 98.270,362.151 97.436 C 359.397 94.943,353.431 93.384,349.010 94.003 M183.000 112.434 L 183.000 130.500 186.667 130.500 L 190.333 130.500 190.333 123.070 L 190.333 115.640 190.875 115.755 C 191.739 115.939,192.996 117.400,194.434 119.888 C 194.791 120.507,195.466 121.666,195.933 122.465 C 196.400 123.263,197.178 124.660,197.661 125.567 C 198.145 126.475,198.856 127.713,199.241 128.317 C 199.626 128.922,200.039 129.660,200.158 129.958 L 200.374 130.500 204.770 130.500 C 209.759 130.500,209.495 130.599,208.559 129.074 C 208.226 128.529,207.705 127.617,207.402 127.048 C 207.100 126.478,206.705 125.803,206.526 125.548 C 205.935 124.708,205.000 123.163,205.000 123.027 C 205.000 122.954,204.442 122.037,203.760 120.989 C 203.078 119.941,202.162 118.531,201.724 117.857 C 201.286 117.182,200.644 116.319,200.297 115.940 C 199.514 115.083,199.515 115.067,200.349 114.934 C 201.780 114.705,205.000 112.503,205.000 111.753 C 205.000 111.690,205.223 111.326,205.495 110.944 C 208.222 107.118,207.325 99.836,203.772 96.948 C 200.965 94.667,200.319 94.555,189.292 94.436 L 183.000 94.369 183.000 112.434 M242.744 94.542 C 242.700 94.656,242.683 102.775,242.707 112.583 L 242.750 130.417 251.000 130.413 C 261.638 130.409,262.688 130.192,265.418 127.431 C 268.900 123.909,269.096 116.396,265.775 113.750 C 265.486 113.520,265.122 113.210,264.967 113.062 C 264.811 112.914,264.004 112.441,263.174 112.013 L 261.665 111.233 262.495 110.935 C 266.112 109.634,268.014 103.563,266.014 99.703 C 265.420 98.557,263.789 96.702,263.047 96.329 C 262.792 96.200,262.389 95.965,262.152 95.806 C 261.178 95.151,259.189 94.651,256.942 94.496 C 253.437 94.254,242.840 94.288,242.744 94.542 M307.333 112.445 L 307.333 130.500 311.000 130.500 L 314.667 130.500 314.667 123.083 C 314.667 117.805,314.719 115.667,314.850 115.667 C 315.303 115.667,316.199 116.257,316.710 116.890 C 317.311 117.637,319.878 121.724,320.054 122.214 C 320.113 122.378,320.552 123.165,321.030 123.964 C 321.508 124.763,322.173 125.942,322.507 126.583 C 322.841 127.225,323.482 128.367,323.932 129.121 L 324.750 130.491 329.125 130.496 C 331.531 130.498,333.500 130.457,333.500 130.404 C 333.500 130.232,331.642 126.945,330.911 125.826 C 330.520 125.226,330.081 124.476,329.937 124.159 C 329.792 123.842,329.224 122.908,328.674 122.083 C 328.124 121.258,327.596 120.407,327.501 120.192 C 327.263 119.651,325.035 116.426,324.375 115.666 L 323.834 115.044 324.489 114.956 C 325.263 114.852,326.831 114.163,327.289 113.725 C 327.467 113.556,327.756 113.335,327.931 113.235 C 328.546 112.885,329.755 111.190,330.306 109.906 C 332.733 104.253,330.798 97.935,325.941 95.659 C 323.662 94.591,323.172 94.538,314.792 94.460 L 307.333 94.390 307.333 112.445 M213.719 97.542 C 213.244 99.215,212.917 100.647,212.994 100.725 C 213.071 100.803,216.318 100.840,220.211 100.808 L 227.288 100.750 226.769 101.358 C 226.484 101.693,225.878 102.593,225.423 103.358 C 224.968 104.124,224.197 105.365,223.710 106.117 C 223.222 106.868,222.710 107.731,222.570 108.033 C 222.431 108.336,221.947 109.146,221.494 109.833 C 221.041 110.521,220.403 111.571,220.078 112.167 C 219.752 112.763,219.076 113.888,218.577 114.667 C 218.078 115.446,217.514 116.375,217.325 116.731 C 217.137 117.087,216.574 117.997,216.076 118.753 C 215.578 119.509,215.118 120.268,215.054 120.439 C 214.989 120.610,214.452 121.500,213.860 122.417 C 212.320 124.799,212.333 124.754,212.333 127.828 L 212.333 130.500 223.580 130.500 L 234.827 130.500 234.922 130.042 C 234.974 129.790,235.388 128.453,235.842 127.073 C 236.296 125.692,236.667 124.510,236.667 124.448 C 236.667 124.385,233.243 124.333,229.058 124.333 C 221.825 124.333,221.461 124.319,221.702 124.042 C 222.030 123.664,224.824 119.219,224.960 118.859 C 225.017 118.707,225.612 117.709,226.282 116.641 C 226.952 115.573,227.500 114.647,227.500 114.584 C 227.500 114.521,227.977 113.708,228.561 112.776 C 229.144 111.845,229.790 110.746,229.997 110.333 C 230.204 109.921,230.662 109.156,231.015 108.633 C 231.369 108.111,232.045 106.986,232.518 106.133 C 232.991 105.281,233.706 104.080,234.107 103.464 C 234.509 102.849,234.904 102.170,234.985 101.956 C 235.067 101.742,235.366 101.222,235.650 100.801 L 236.167 100.035 236.167 97.267 L 236.167 94.500 225.375 94.501 L 214.583 94.501 213.719 97.542 M273.503 108.208 C 273.506 124.637,273.561 125.055,276.008 127.494 C 281.478 132.946,294.331 132.073,297.999 126.001 C 299.503 123.513,299.409 124.631,299.464 108.625 L 299.512 94.500 295.677 94.500 L 291.841 94.500 291.796 107.792 C 291.751 120.923,291.746 121.093,291.398 121.845 C 289.742 125.423,283.533 125.584,281.754 122.095 L 281.250 121.107 281.205 107.804 L 281.161 94.500 277.330 94.500 L 273.500 94.500 273.503 108.208 M102.000 94.855 C 102.000 94.962,102.517 97.195,103.148 99.816 C 103.779 102.438,104.873 107.021,105.579 110.000 C 106.285 112.979,107.373 117.554,107.997 120.167 C 108.621 122.779,109.416 126.173,109.763 127.708 L 110.394 130.500 114.439 130.500 L 118.485 130.500 118.594 129.875 C 118.654 129.531,119.026 127.712,119.421 125.833 C 120.390 121.216,121.905 113.313,122.597 109.265 C 123.088 106.391,123.333 105.290,123.333 105.960 C 123.333 107.308,124.544 114.156,125.741 119.583 C 126.409 122.608,127.163 126.057,127.418 127.248 C 127.674 128.439,127.950 129.659,128.033 129.960 L 128.184 130.506 132.028 130.461 L 135.872 130.417 137.106 125.333 C 137.785 122.537,138.863 118.075,139.502 115.417 C 140.141 112.758,141.082 108.858,141.592 106.750 C 142.889 101.397,144.333 95.140,144.333 94.879 C 144.333 94.704,143.616 94.669,140.717 94.705 L 137.100 94.750 135.965 99.833 C 134.637 105.784,133.569 111.257,132.826 115.917 C 132.534 117.750,132.243 119.393,132.180 119.567 C 132.112 119.753,131.772 118.074,131.354 115.483 C 130.964 113.063,130.234 109.133,129.733 106.750 C 129.233 104.367,128.478 100.673,128.057 98.542 L 127.290 94.667 123.475 94.667 C 119.674 94.667,119.659 94.668,119.510 95.042 C 118.956 96.432,115.345 113.866,114.910 117.250 C 114.550 120.053,114.416 120.524,114.271 119.500 C 114.212 119.087,113.974 117.400,113.741 115.750 C 113.302 112.637,112.880 110.459,111.593 104.667 C 111.175 102.787,110.514 99.787,110.123 98.000 L 109.413 94.750 105.706 94.705 C 102.967 94.672,102.000 94.711,102.000 94.855 M149.505 107.875 C 149.511 123.377,149.540 123.725,150.981 125.948 C 155.461 132.856,170.193 132.507,173.953 125.403 C 175.095 123.246,175.051 123.879,175.126 108.625 L 175.193 94.833 171.613 94.833 L 168.034 94.833 167.959 107.792 C 167.876 122.221,167.912 121.763,166.735 123.139 C 164.836 125.357,160.331 125.508,158.238 123.423 C 156.686 121.877,156.775 122.779,156.705 107.875 L 156.645 94.833 153.072 94.833 L 149.500 94.833 149.505 107.875 M195.822 100.864 C 198.326 101.251,199.777 103.728,199.076 106.418 C 198.388 109.060,196.940 109.826,192.625 109.831 L 190.333 109.833 190.333 105.142 L 190.333 100.451 192.458 100.562 C 193.627 100.622,195.141 100.758,195.822 100.864 M320.083 100.864 C 323.267 101.451,324.495 104.947,322.629 108.110 C 321.943 109.273,320.527 109.731,317.388 109.807 L 314.667 109.872 314.667 105.163 L 314.667 100.453 316.875 100.566 C 318.090 100.629,319.533 100.763,320.083 100.864 M256.987 101.243 C 259.332 102.456,259.601 106.070,257.497 108.087 L 256.983 108.578 253.492 108.641 L 250.000 108.704 250.000 104.742 L 250.000 100.781 253.257 100.890 C 255.617 100.969,256.644 101.066,256.987 101.243 M257.042 115.238 C 259.790 116.218,260.696 120.018,258.782 122.531 C 257.710 123.939,256.265 124.329,252.125 124.332 L 250.167 124.333 250.167 119.667 L 250.167 115.000 253.292 115.007 C 255.463 115.012,256.607 115.083,257.042 115.238 " stroke="none" fill="#04448b" fill-rule="evenodd"></path><path id="path2" d="M127.579 58.417 C 127.579 65.658,127.600 68.597,127.625 64.946 C 127.650 61.295,127.650 55.370,127.625 51.779 C 127.600 48.188,127.579 51.175,127.579 58.417 M109.246 58.083 C 109.246 65.050,109.266 67.876,109.292 64.363 C 109.317 60.850,109.317 55.150,109.292 51.696 C 109.266 48.242,109.246 51.117,109.246 58.083 M152.897 56.083 C 152.897 57.183,152.924 57.612,152.957 57.035 C 152.990 56.459,152.989 55.559,152.956 55.035 C 152.923 54.512,152.897 54.983,152.897 56.083 M141.214 58.083 C 141.216 58.542,141.248 58.709,141.286 58.456 C 141.325 58.203,141.324 57.828,141.284 57.623 C 141.244 57.418,141.213 57.625,141.214 58.083 M141.394 63.750 C 141.395 64.667,141.423 65.020,141.456 64.536 C 141.490 64.052,141.490 63.302,141.456 62.869 C 141.421 62.437,141.394 62.833,141.394 63.750 M141.565 75.000 C 141.565 76.237,141.592 76.744,141.624 76.125 C 141.656 75.506,141.656 74.494,141.624 73.875 C 141.592 73.256,141.565 73.762,141.565 75.000 M118.906 74.042 L 118.417 74.583 118.958 74.094 C 119.256 73.825,119.500 73.581,119.500 73.552 C 119.500 73.423,119.362 73.537,118.906 74.042 M104.583 78.167 C 104.941 78.533,105.272 78.833,105.318 78.833 C 105.363 78.833,105.108 78.533,104.750 78.167 C 104.392 77.800,104.062 77.500,104.016 77.500 C 103.970 77.500,104.225 77.800,104.583 78.167 M164.050 87.833 C 164.050 88.337,164.081 88.544,164.119 88.292 C 164.158 88.040,164.158 87.627,164.119 87.375 C 164.081 87.123,164.050 87.329,164.050 87.833 M160.712 87.833 C 160.712 88.246,160.745 88.415,160.784 88.208 C 160.824 88.002,160.824 87.665,160.784 87.458 C 160.745 87.252,160.712 87.421,160.712 87.833 M153.667 90.219 C 153.667 90.248,153.910 90.491,154.208 90.760 L 154.750 91.250 154.260 90.708 C 153.804 90.203,153.667 90.090,153.667 90.219 M153.041 94.790 L 156.665 94.840 156.709 107.003 L 156.753 119.167 156.752 106.958 L 156.750 94.750 153.083 94.745 L 149.417 94.740 153.041 94.790 M167.874 106.208 L 167.914 117.750 167.958 106.295 L 168.002 94.840 171.626 94.791 L 175.250 94.743 171.542 94.705 L 167.833 94.667 167.874 106.208 M175.048 120.750 C 175.049 121.208,175.081 121.376,175.120 121.123 C 175.158 120.869,175.157 120.494,175.117 120.289 C 175.078 120.084,175.046 120.292,175.048 120.750 M161.208 130.948 C 161.369 130.990,161.631 130.990,161.792 130.948 C 161.952 130.906,161.821 130.872,161.500 130.872 C 161.179 130.872,161.048 130.906,161.208 130.948 M163.042 130.948 C 163.202 130.990,163.465 130.990,163.625 130.948 C 163.785 130.906,163.654 130.872,163.333 130.872 C 163.012 130.872,162.881 130.906,163.042 130.948 " stroke="none" fill="#5e85b5" fill-rule="evenodd"></path><path id="path3" d="M152.879 58.667 C 152.879 59.079,152.911 59.248,152.951 59.042 C 152.991 58.835,152.991 58.498,152.951 58.292 C 152.911 58.085,152.879 58.254,152.879 58.667 M141.372 61.667 C 141.372 61.987,141.406 62.119,141.448 61.958 C 141.490 61.798,141.490 61.535,141.448 61.375 C 141.406 61.215,141.372 61.346,141.372 61.667 M141.548 72.083 C 141.549 72.542,141.581 72.709,141.620 72.456 C 141.658 72.203,141.657 71.828,141.617 71.623 C 141.578 71.418,141.546 71.625,141.548 72.083 M136.625 80.958 C 137.565 80.987,139.102 80.987,140.042 80.958 C 140.981 80.928,140.212 80.904,138.333 80.904 C 136.454 80.904,135.685 80.928,136.625 80.958 M153.958 80.958 C 154.990 80.987,156.677 80.987,157.708 80.958 C 158.740 80.929,157.896 80.905,155.833 80.905 C 153.771 80.905,152.927 80.929,153.958 80.958 M169.551 80.958 C 170.633 80.987,172.358 80.987,173.384 80.958 C 174.410 80.928,173.525 80.905,171.417 80.905 C 169.308 80.905,168.469 80.929,169.551 80.958 " stroke="none" fill="#779cc3" fill-rule="evenodd"></path><path id="path4" d="M101.913 58.417 C 101.913 65.658,101.933 68.597,101.958 64.946 C 101.983 61.295,101.983 55.370,101.958 51.779 C 101.933 48.188,101.913 51.175,101.913 58.417 M152.724 46.583 C 152.724 47.317,152.754 47.596,152.789 47.204 C 152.824 46.812,152.824 46.212,152.788 45.871 C 152.752 45.529,152.723 45.850,152.724 46.583 M159.580 63.083 C 159.580 72.892,159.600 76.880,159.625 71.946 C 159.650 67.011,159.649 58.986,159.625 54.112 C 159.600 49.238,159.580 53.275,159.580 63.083 M134.706 63.115 C 134.684 72.849,134.723 80.848,134.792 80.891 C 134.905 80.961,134.904 68.395,134.789 51.750 C 134.766 48.267,134.728 53.381,134.706 63.115 M141.167 56.500 C 141.167 56.811,141.211 56.856,141.367 56.700 C 141.522 56.544,141.522 56.456,141.367 56.300 C 141.211 56.144,141.167 56.189,141.167 56.500 M141.390 59.917 C 141.391 60.650,141.420 60.929,141.456 60.537 C 141.491 60.145,141.490 59.545,141.454 59.204 C 141.419 58.863,141.390 59.183,141.390 59.917 M152.883 60.167 C 152.883 60.671,152.915 60.877,152.953 60.625 C 152.991 60.373,152.991 59.960,152.953 59.708 C 152.915 59.456,152.883 59.663,152.883 60.167 M153.039 64.167 C 153.039 64.487,153.073 64.619,153.115 64.458 C 153.157 64.298,153.157 64.035,153.115 63.875 C 153.073 63.715,153.039 63.846,153.039 64.167 M141.569 68.333 C 141.569 70.029,141.594 70.723,141.624 69.875 C 141.654 69.027,141.654 67.640,141.624 66.792 C 141.594 65.944,141.569 66.637,141.569 68.333 M114.460 75.451 C 114.668 75.491,114.968 75.490,115.127 75.448 C 115.286 75.406,115.117 75.374,114.750 75.375 C 114.383 75.377,114.253 75.411,114.460 75.451 M141.723 79.667 C 141.723 80.354,141.752 80.635,141.788 80.292 C 141.824 79.948,141.824 79.385,141.788 79.042 C 141.752 78.698,141.723 78.979,141.723 79.667 M152.872 87.833 C 152.872 88.154,152.906 88.285,152.948 88.125 C 152.990 87.965,152.990 87.702,152.948 87.542 C 152.906 87.381,152.872 87.513,152.872 87.833 M149.412 107.167 C 149.412 113.996,149.433 116.790,149.458 113.375 C 149.483 109.960,149.483 104.373,149.458 100.958 C 149.433 97.544,149.412 100.337,149.412 107.167 M161.792 124.787 C 162.090 124.824,162.577 124.824,162.875 124.787 C 163.173 124.750,162.929 124.720,162.333 124.720 C 161.737 124.720,161.494 124.750,161.792 124.787 M172.575 127.375 L 171.917 128.083 172.625 127.425 C 173.284 126.812,173.410 126.667,173.284 126.667 C 173.257 126.667,172.938 126.985,172.575 127.375 M112.385 130.625 C 113.559 130.653,115.434 130.653,116.551 130.624 C 117.669 130.596,116.708 130.572,114.417 130.572 C 112.125 130.572,111.211 130.596,112.385 130.625 M130.135 130.625 C 131.263 130.653,133.063 130.653,134.135 130.624 C 135.206 130.595,134.283 130.572,132.083 130.572 C 129.883 130.572,129.006 130.596,130.135 130.625 M70.125 139.958 C 89.398 139.982,120.935 139.982,140.208 139.958 C 159.481 139.935,143.712 139.916,105.167 139.916 C 66.621 139.916,50.852 139.935,70.125 139.958 " stroke="none" fill="#85a4c4" fill-rule="evenodd"></path></g></svg>