<?xml version="1.0" standalone="no"?>
<!DOCTYPE svg PUBLIC "-//W3C//DTD SVG 20010904//EN"
 "http://www.w3.org/TR/2001/REC-SVG-20010904/DTD/svg10.dtd">
<svg version="1.0" xmlns="http://www.w3.org/2000/svg"
 width="1021.000000pt" height="1161.000000pt" viewBox="0 0 1021.000000 1161.000000"
 preserveAspectRatio="xMidYMid meet">

<g transform="translate(0.000000,1161.000000) scale(0.100000,-0.100000)"
fill="#000000" stroke="none">
<path d="M302 11524 c-143 -38 -223 -128 -257 -289 -22 -103 -22 -3615 0
-3717 21 -99 50 -157 106 -210 91 -85 121 -92 437 -96 254 -3 278 -2 342 17
82 25 143 69 187 135 70 104 67 61 73 981 l5 830 31 -65 c18 -36 90 -189 161
-341 197 -420 248 -484 400 -505 68 -9 147 15 200 61 62 53 118 150 261 455
71 151 143 302 160 335 l31 60 1 -795 c0 -848 1 -867 50 -977 28 -63 107 -136
178 -165 55 -22 67 -23 352 -23 284 0 297 1 351 23 110 44 183 134 214 263 22
96 22 3651 0 3747 -31 132 -102 219 -214 264 -53 22 -71 23 -356 26 -254 3
-310 1 -368 -14 -129 -31 -235 -126 -310 -278 -19 -39 -137 -312 -262 -606
-251 -592 -253 -596 -265 -584 -5 5 -119 270 -255 589 -135 319 -264 611 -286
648 -75 126 -167 198 -294 232 -82 21 -593 21 -673 -1z"/>
<path d="M3945 11534 c-146 -34 -240 -121 -282 -259 -17 -57 -18 -150 -18
-1900 l0 -1840 22 -70 c43 -135 142 -221 283 -245 45 -8 294 -10 830 -8 l765
3 56 23 c32 12 78 41 103 63 103 91 128 179 129 459 1 157 -2 206 -16 252 -24
80 -71 137 -142 173 l-59 30 -375 0 c-207 0 -382 4 -390 9 -7 5 -20 25 -30 45
-15 33 -16 168 -21 1501 -5 1324 -7 1470 -22 1512 -39 114 -108 190 -207 230
-53 21 -72 23 -331 24 -151 1 -284 0 -295 -2z"/>
<path d="M8400 11524 c-100 -21 -180 -66 -244 -135 -129 -139 -247 -375 -933
-1869 -224 -487 -235 -514 -263 -647 -30 -140 -40 -465 -17 -544 22 -76 65
-131 123 -160 l49 -24 573 -3 572 -3 1 -22 c0 -12 0 -146 -1 -297 -2 -376 16
-471 103 -546 72 -61 99 -64 498 -64 333 0 362 1 412 20 55 21 114 73 140 125
34 71 39 129 35 447 -1 172 1 319 5 326 6 8 38 12 100 12 115 0 163 13 203 56
62 65 67 96 72 434 4 334 -1 389 -46 441 -34 41 -78 59 -145 59 -30 0 -82 3
-115 6 l-62 7 -2 1091 -3 1091 -23 50 c-30 65 -75 112 -137 141 l-50 24 -390
-1 c-296 0 -406 -4 -455 -15z m838 -170 c49 -34 47 8 52 -1164 5 -1086 5
-1106 25 -1140 33 -57 85 -76 225 -85 l121 -7 -3 -306 c-2 -169 -7 -315 -12
-324 -7 -15 -22 -18 -100 -18 -116 0 -161 -13 -207 -59 -60 -60 -64 -85 -60
-443 3 -341 0 -372 -46 -408 -25 -19 -40 -20 -375 -20 -220 0 -356 4 -369 10
-10 6 -27 25 -36 43 -16 29 -18 69 -20 374 -1 195 -7 359 -12 381 -12 44 -62
95 -110 111 -24 8 -201 11 -587 11 -310 0 -563 4 -577 9 -44 17 -50 55 -44
254 6 190 23 312 58 401 24 61 390 858 634 1382 399 856 472 971 638 1004 23
4 209 8 412 9 320 1 374 -1 393 -15z"/>
<path d="M8315 10121 c-44 -19 -73 -72 -299 -553 -63 -134 -137 -290 -165
-347 -61 -125 -66 -168 -23 -211 44 -44 97 -54 282 -54 184 -1 225 7 277 57
66 62 68 81 68 577 0 398 -2 448 -17 476 -9 17 -23 36 -31 42 -19 16 -68 23
-92 13z m-30 -869 c-7 -108 -8 -114 -32 -123 -29 -11 -253 -12 -253 -1 0 4 64
143 142 310 l143 303 3 -188 c2 -103 0 -239 -3 -301z"/>
<path d="M1397 6842 c-9 -10 -21 -43 -27 -73 -27 -145 -110 -664 -110 -685 0
-40 25 -54 96 -54 74 0 77 3 97 106 l12 59 58 3 c31 2 57 -1 57 -5 0 -32 23
-140 32 -150 7 -8 35 -13 79 -13 62 0 70 2 85 25 14 22 15 35 6 88 -6 34 -34
197 -61 362 -37 217 -56 307 -70 325 -17 24 -24 25 -128 28 -96 2 -111 0 -126
-16z m152 -312 c15 -163 17 -152 -26 -148 l-38 3 3 60 c4 78 20 204 28 217 13
21 23 -18 33 -132z"/>
<path d="M1999 6844 c-94 -29 -172 -127 -198 -252 -15 -73 -14 -224 4 -305 35
-167 144 -267 291 -267 39 0 46 3 54 26 14 35 12 94 -3 124 -10 20 -22 26 -62
30 -41 4 -52 10 -67 35 -25 43 -41 167 -35 260 10 141 41 195 112 195 22 0 46
5 53 12 15 15 16 112 2 139 -13 23 -81 25 -151 3z"/>
<path d="M2207 6842 c-15 -17 -17 -59 -17 -399 0 -438 -6 -413 93 -413 82 0
87 10 87 185 0 154 4 165 55 165 51 0 55 -11 55 -165 0 -175 5 -185 89 -185
96 0 91 -23 91 417 0 438 5 413 -92 413 -78 0 -82 -7 -88 -164 l-5 -131 -50 0
-50 0 -5 131 c-3 90 -9 136 -19 148 -20 24 -122 22 -144 -2z"/>
<path d="M2717 6842 c-15 -17 -17 -59 -17 -399 0 -438 -6 -413 93 -413 91 0
87 -17 87 415 0 433 4 415 -89 415 -43 0 -62 -5 -74 -18z"/>
<path d="M2927 6842 c-15 -17 -17 -56 -17 -399 0 -438 -5 -413 92 -413 39 0
60 5 69 16 10 13 15 65 19 198 l5 181 75 -180 c41 -99 83 -188 93 -197 12 -13
33 -18 71 -18 89 0 86 -16 86 415 0 433 4 415 -89 415 -90 0 -91 -3 -91 -205
0 -93 -3 -165 -7 -162 -3 4 -40 87 -82 184 l-76 178 -66 3 c-53 2 -68 -1 -82
-16z"/>
<path d="M3477 6842 c-15 -17 -17 -59 -17 -394 0 -343 2 -378 18 -397 16 -21
24 -22 187 -19 l170 3 3 75 c4 93 -4 100 -104 100 -90 0 -96 7 -92 97 l3 68
90 5 90 5 3 63 c4 85 -3 92 -92 92 -43 0 -77 5 -84 12 -7 7 -12 38 -12 70 0
71 16 83 102 75 95 -8 98 -6 98 78 0 57 -3 74 -16 79 -9 3 -87 6 -173 6 -140
0 -160 -2 -174 -18z"/>
<path d="M4497 6842 c-15 -17 -17 -59 -17 -394 0 -343 2 -378 18 -397 16 -21
24 -22 187 -19 l170 3 3 75 c4 93 -4 100 -104 100 -90 0 -96 7 -92 97 l3 68
90 5 90 5 3 63 c4 85 -3 92 -92 92 -43 0 -77 5 -84 12 -7 7 -12 38 -12 70 0
71 16 83 102 75 95 -8 98 -6 98 78 0 57 -3 74 -16 79 -9 3 -87 6 -173 6 -140
0 -160 -2 -174 -18z"/>
<path d="M5027 6842 c-9 -10 -21 -43 -27 -73 -27 -145 -110 -664 -110 -685 0
-40 25 -54 96 -54 74 0 77 3 97 106 l12 59 58 3 c31 2 57 -1 57 -5 0 -32 23
-140 32 -150 7 -8 35 -13 79 -13 62 0 70 2 85 25 14 22 15 35 6 88 -6 34 -34
197 -61 362 -37 217 -56 307 -70 325 -17 24 -24 25 -128 28 -96 2 -111 0 -126
-16z m152 -312 c15 -163 17 -152 -26 -148 l-38 3 3 60 c4 78 20 204 28 217 13
21 23 -18 33 -132z"/>
<path d="M5467 6842 c-15 -17 -17 -59 -17 -396 0 -241 4 -384 10 -397 9 -16
22 -19 75 -19 89 0 95 10 95 162 0 70 4 118 10 118 14 0 35 -45 60 -129 30
-103 76 -152 148 -159 75 -7 82 2 82 107 0 47 -4 91 -8 98 -4 6 -25 13 -47 15
-37 3 -41 6 -54 46 -17 54 -9 83 27 103 48 27 72 91 72 190 0 100 -20 175 -57
220 -43 51 -76 59 -236 59 -127 0 -146 -2 -160 -18z m250 -172 c7 -14 13 -52
13 -85 0 -77 -19 -107 -63 -103 l-32 3 -3 94 c-1 52 0 101 3 108 9 24 68 12
82 -17z"/>
<path d="M5967 6842 c-15 -17 -17 -56 -17 -399 0 -438 -5 -413 92 -413 39 0
60 5 69 16 10 13 15 65 19 198 l5 181 75 -180 c41 -99 83 -188 93 -197 12 -13
33 -18 71 -18 89 0 86 -16 86 415 0 433 4 415 -89 415 -90 0 -91 -3 -91 -205
0 -93 -3 -165 -7 -162 -3 4 -40 87 -82 184 l-76 178 -66 3 c-53 2 -68 -1 -82
-16z"/>
<path d="M6517 6842 c-15 -17 -17 -59 -17 -399 0 -438 -6 -413 93 -413 91 0
87 -17 87 415 0 433 4 415 -89 415 -43 0 -62 -5 -74 -18z"/>
<path d="M6737 6842 c-15 -17 -17 -56 -17 -399 0 -438 -5 -413 92 -413 39 0
60 5 69 16 10 13 15 65 19 198 l5 181 75 -180 c41 -99 83 -188 93 -197 12 -13
33 -18 71 -18 89 0 86 -16 86 415 0 433 4 415 -89 415 -90 0 -91 -3 -91 -205
0 -93 -3 -165 -7 -162 -3 4 -40 87 -82 184 l-76 178 -66 3 c-53 2 -68 -1 -82
-16z"/>
<path d="M7479 6844 c-56 -17 -142 -91 -170 -145 -30 -60 -49 -156 -49 -252 0
-276 124 -427 353 -427 81 0 130 20 146 58 8 18 10 102 9 247 l-3 220 -115 0
-115 0 0 -74 0 -75 33 -8 33 -9 -3 -86 c-3 -100 -17 -120 -66 -93 -48 27 -76
101 -80 216 -5 127 14 202 64 252 l34 34 93 -3 92 -4 0 70 c0 64 -2 70 -25 82
-33 17 -173 15 -231 -3z"/>
<path d="M8026 6838 c-14 -19 -16 -74 -16 -399 0 -433 -5 -409 92 -409 79 0
82 5 88 179 l5 146 78 5 c90 6 97 12 97 87 0 81 -2 83 -84 83 -43 0 -77 5 -84
12 -7 7 -12 38 -12 69 0 77 15 91 89 89 108 -4 101 -10 101 74 0 58 -3 75 -16
80 -9 3 -85 6 -169 6 -148 0 -154 -1 -169 -22z"/>
<path d="M8535 6845 c-53 -19 -90 -62 -109 -126 -23 -77 -23 -483 0 -559 31
-104 105 -146 240 -138 82 6 127 27 161 77 37 55 45 125 41 375 -3 209 -5 235
-24 276 -25 54 -50 77 -101 96 -49 17 -157 17 -208 -1z m143 -167 c16 -16 17
-440 2 -469 -12 -22 -59 -26 -78 -7 -13 13 -18 441 -6 472 7 19 64 22 82 4z"/>
<path d="M8927 6842 c-15 -17 -17 -59 -17 -396 0 -241 4 -384 10 -397 9 -16
22 -19 75 -19 89 0 95 10 95 162 0 70 4 118 10 118 14 0 35 -45 60 -129 30
-103 76 -152 148 -159 75 -7 82 2 82 107 0 47 -4 91 -8 98 -4 6 -25 13 -47 15
-37 3 -41 6 -54 46 -17 54 -9 83 27 103 48 27 72 91 72 190 0 100 -20 175 -57
220 -43 51 -76 59 -236 59 -127 0 -146 -2 -160 -18z m250 -172 c7 -14 13 -52
13 -85 0 -77 -19 -107 -63 -103 l-32 3 -3 94 c-1 52 0 101 3 108 9 24 68 12
82 -17z"/>
<path d="M1499 5694 c-94 -29 -172 -127 -198 -252 -15 -73 -14 -224 4 -305 35
-167 144 -267 291 -267 39 0 46 3 54 26 14 35 12 94 -3 124 -10 20 -22 26 -62
30 -41 4 -52 10 -67 35 -25 43 -41 167 -35 260 10 141 41 195 112 195 22 0 46
5 53 12 15 15 16 112 2 139 -13 23 -81 25 -151 3z"/>
<path d="M1815 5695 c-53 -19 -90 -62 -109 -126 -23 -77 -23 -483 0 -559 31
-104 105 -146 240 -138 82 6 127 27 161 77 37 55 45 125 41 375 -3 209 -5 235
-24 276 -25 54 -50 77 -101 96 -49 17 -157 17 -208 -1z m143 -167 c16 -16 17
-440 2 -469 -12 -22 -59 -26 -78 -7 -13 13 -18 441 -6 472 7 19 64 22 82 4z"/>
<path d="M2197 5692 c-15 -17 -17 -59 -17 -399 0 -438 -5 -413 92 -413 39 0
60 5 69 17 10 12 15 67 19 212 l5 196 46 -105 c40 -92 48 -105 70 -105 25 0
40 23 99 155 l25 55 3 -194 c3 -231 3 -231 93 -231 93 0 89 -18 89 415 0 437
5 415 -96 415 -81 0 -90 -8 -139 -136 -68 -177 -65 -171 -79 -152 -7 10 -32
69 -56 132 -55 147 -63 156 -144 156 -48 0 -67 -4 -79 -18z"/>
<path d="M2847 5692 c-15 -17 -17 -54 -17 -399 0 -438 -6 -413 93 -413 80 0
87 13 87 161 l0 116 78 6 c126 8 172 43 196 147 34 144 13 281 -54 354 l-39
41 -163 3 c-150 3 -165 2 -181 -16z m250 -172 c7 -14 13 -55 13 -91 0 -76 -18
-103 -67 -97 l-28 3 -3 94 c-1 52 0 101 3 108 9 24 68 12 82 -17z"/>
<path d="M3347 5692 c-15 -17 -17 -59 -17 -399 0 -355 1 -381 18 -396 27 -24
303 -25 326 -1 19 19 22 124 4 142 -7 7 -41 12 -84 12 -56 0 -73 3 -78 16 -3
9 -6 147 -6 308 0 345 2 336 -89 336 -43 0 -62 -5 -74 -18z"/>
<path d="M3727 5692 c-15 -17 -17 -59 -17 -394 0 -343 2 -378 18 -397 16 -21
24 -22 187 -19 l170 3 3 75 c4 93 -4 100 -104 100 -90 0 -96 7 -92 97 l3 68
90 5 90 5 3 63 c4 85 -3 92 -92 92 -43 0 -77 5 -84 12 -7 7 -12 38 -12 70 0
71 16 83 102 75 95 -8 98 -6 98 78 0 57 -3 74 -16 79 -9 3 -87 6 -173 6 -140
0 -160 -2 -174 -18z"/>
<path d="M4143 5703 c-21 -8 -15 -40 42 -214 l55 -167 -35 -114 c-108 -349
-109 -321 9 -326 l77 -3 13 33 c7 18 24 84 36 146 13 61 25 110 27 108 2 -2
19 -63 38 -135 19 -73 37 -136 40 -141 10 -17 171 -12 185 5 15 19 12 30 -62
238 -42 117 -59 179 -55 200 2 18 30 102 62 187 41 110 54 159 47 170 -13 21
-144 27 -164 7 -13 -13 -23 -45 -69 -217 l-12 -45 -26 115 c-38 163 -36 160
-124 159 -40 0 -78 -3 -84 -6z"/>
<path d="M6254 5695 c-7 -18 -8 -14 52 -405 65 -426 59 -410 165 -410 83 0 89
6 120 131 11 46 24 88 29 93 9 9 21 -27 41 -124 19 -93 27 -100 114 -100 95 0
99 5 125 176 34 228 82 625 76 640 -4 10 -25 14 -85 14 -44 0 -82 -4 -85 -9
-4 -5 -15 -117 -26 -248 -28 -325 -30 -331 -59 -147 -22 140 -23 160 -12 268
6 64 9 121 6 127 -4 5 -51 9 -106 9 l-99 0 0 -42 c0 -24 7 -81 15 -128 13 -76
12 -101 -2 -234 -10 -89 -20 -141 -24 -130 -4 10 -22 129 -39 264 -18 135 -37
251 -42 258 -16 19 -157 16 -164 -3z"/>
<path d="M7125 5695 c-53 -19 -90 -62 -109 -126 -23 -77 -23 -483 0 -559 31
-104 105 -146 240 -138 82 6 127 27 161 77 37 55 45 125 41 375 -3 209 -5 235
-24 276 -25 54 -50 77 -101 96 -49 17 -157 17 -208 -1z m143 -167 c16 -16 17
-440 2 -469 -12 -22 -59 -26 -78 -7 -13 13 -18 441 -6 472 7 19 64 22 82 4z"/>
<path d="M7517 5692 c-15 -17 -17 -59 -17 -396 0 -241 4 -384 10 -397 9 -16
22 -19 75 -19 89 0 95 10 95 162 0 70 4 118 10 118 14 0 35 -45 60 -129 30
-103 76 -152 148 -159 75 -7 82 2 82 107 0 47 -4 91 -8 98 -4 6 -25 13 -47 15
-37 3 -41 6 -54 46 -17 54 -9 83 27 103 48 27 72 91 72 190 0 100 -20 175 -57
220 -43 51 -76 59 -236 59 -127 0 -146 -2 -160 -18z m250 -172 c7 -14 13 -52
13 -85 0 -77 -19 -107 -63 -103 l-32 3 -3 94 c-1 52 0 101 3 108 9 24 68 12
82 -17z"/>
<path d="M8027 5692 c-15 -17 -17 -59 -17 -399 0 -438 -6 -413 93 -413 83 0
87 9 87 198 0 193 10 191 71 -15 24 -81 51 -155 61 -165 26 -26 153 -26 167 0
11 21 -20 121 -97 318 l-52 131 66 139 c46 94 67 152 68 179 l1 40 -73 3 c-46
2 -79 -2 -88 -9 -8 -6 -32 -69 -55 -139 -57 -182 -69 -186 -69 -23 0 162 -6
173 -89 173 -43 0 -62 -5 -74 -18z"/>
<path d="M8656 5700 c-80 -25 -132 -127 -124 -244 5 -80 23 -115 112 -213 89
-100 106 -134 85 -172 -15 -25 -18 -26 -110 -26 l-94 0 -3 -67 c-3 -63 -1 -68
23 -84 34 -22 164 -31 225 -14 60 16 124 80 140 140 17 62 8 174 -18 233 -12
26 -54 82 -96 126 -65 68 -76 85 -76 115 0 45 21 57 80 46 62 -12 66 -12 84 6
11 10 16 34 16 68 0 77 -17 89 -128 93 -48 1 -100 -2 -116 -7z"/>
<path d="M8696 4505 c-402 -57 -693 -257 -841 -578 -47 -102 -81 -208 -107
-340 -20 -99 -23 -141 -23 -357 1 -238 2 -248 28 -335 53 -174 135 -319 276
-490 41 -49 219 -236 396 -415 406 -410 454 -476 456 -617 1 -81 -13 -115 -66
-162 -72 -63 -130 -84 -241 -89 -121 -5 -232 9 -400 49 -213 50 -353 37 -440
-43 -70 -65 -76 -99 -72 -406 4 -298 8 -313 104 -401 87 -79 204 -126 409
-164 107 -20 153 -22 420 -22 270 0 313 3 430 24 298 53 509 155 692 334 250
243 335 512 320 1006 -9 319 -66 527 -208 773 -114 195 -338 442 -630 693
-245 212 -272 250 -277 400 -2 76 0 95 17 122 39 63 158 68 425 17 191 -36
334 -32 419 10 68 33 109 88 126 167 6 28 11 155 11 283 0 281 -6 311 -78 379
-80 74 -179 114 -372 149 -150 27 -618 35 -774 13z"/>
<path d="M3440 4489 c-207 -22 -315 -123 -350 -331 -7 -44 -10 -603 -8 -1848
l3 -1785 23 -70 c44 -129 114 -214 221 -264 l56 -26 884 -3 c1003 -3 958 -6
1036 73 70 70 75 99 75 440 0 346 -4 370 -79 445 -38 37 -64 54 -117 71 -67
22 -79 22 -454 20 -360 -2 -387 -1 -420 17 -69 37 -72 52 -68 368 3 224 7 285
18 299 13 15 48 16 419 13 377 -3 410 -2 464 16 74 24 129 77 152 145 14 43
16 88 13 328 -3 265 -4 280 -26 327 -47 103 -112 157 -208 175 -29 6 -165 6
-339 1 -164 -5 -320 -5 -360 0 -118 15 -127 39 -129 352 -1 267 -9 262 379
256 465 -6 554 -3 614 16 64 22 126 79 136 127 l8 34 14 -42 c20 -59 87 -116
161 -137 44 -12 101 -16 229 -16 169 0 171 0 177 -22 3 -13 6 -678 6 -1478 0
-1559 -1 -1523 50 -1637 28 -63 107 -136 178 -165 55 -22 68 -23 347 -23 256
0 296 2 343 18 76 27 142 83 179 153 65 123 63 64 63 1637 0 783 3 1445 6
1471 l7 46 172 0 c217 0 280 16 343 84 22 24 45 61 51 82 7 24 11 155 11 334
0 266 -2 299 -19 335 -25 54 -74 98 -146 132 l-60 28 -910 3 c-673 2 -924 0
-965 -9 -106 -22 -180 -74 -218 -153 l-19 -39 -11 31 c-31 89 -141 155 -288
172 -105 12 -1530 11 -1644 -1z m1705 -182 c79 -36 75 -17 75 -328 0 -262 -1
-279 -19 -288 -33 -18 -169 -22 -451 -14 -412 12 -512 -2 -592 -84 -75 -77
-90 -169 -78 -453 10 -217 23 -267 89 -330 82 -81 163 -92 575 -80 335 10 344
9 376 -62 18 -39 20 -67 20 -294 0 -185 -3 -255 -12 -267 -25 -32 -110 -38
-488 -31 -418 8 -439 5 -503 -65 -56 -62 -62 -105 -62 -446 0 -286 1 -302 21
-346 28 -60 86 -118 149 -149 l50 -25 395 -1 c415 0 459 -4 496 -45 18 -20 19
-40 19 -326 l0 -305 -24 -19 c-22 -18 -51 -19 -882 -19 -947 0 -899 -3 -967
62 -17 18 -42 57 -55 87 l-22 56 -3 1785 c-2 1243 1 1801 8 1837 21 101 74
148 182 162 35 5 423 8 863 7 745 -1 803 -2 840 -19z m2324 3 c19 -5 45 -19
58 -32 l23 -21 0 -276 c0 -152 -4 -281 -8 -288 -16 -26 -69 -33 -235 -33 -190
0 -232 -8 -280 -50 -65 -56 -61 40 -67 -1610 -6 -1646 -2 -1549 -65 -1615 -46
-49 -83 -55 -350 -55 -303 1 -332 9 -379 110 -21 45 -21 46 -26 1555 -5 1423
-6 1512 -23 1550 -45 100 -68 108 -318 115 -185 4 -209 7 -228 24 -20 19 -21
27 -21 296 0 308 -3 292 70 324 30 13 155 15 925 16 550 0 903 -4 924 -10z"/>
<path d="M300 4474 c-144 -39 -220 -127 -255 -292 -22 -100 -22 -3614 0 -3714
21 -99 50 -157 106 -210 91 -85 121 -92 437 -96 254 -3 278 -2 342 17 82 25
143 69 187 135 70 103 67 70 73 899 l5 748 363 -788 c200 -433 378 -809 397
-835 96 -131 283 -184 630 -176 147 3 178 7 226 26 110 44 183 134 214 263 22
96 22 3651 0 3747 -31 132 -102 219 -214 264 -54 22 -67 23 -346 23 -254 0
-296 -2 -342 -18 -106 -37 -176 -111 -215 -226 -22 -65 -23 -76 -28 -754 l-5
-688 -334 713 c-184 392 -349 740 -367 773 -48 88 -97 140 -162 172 l-57 28
-300 2 c-241 2 -311 -1 -355 -13z m640 -172 c19 -9 47 -35 61 -57 15 -22 205
-420 423 -885 435 -928 425 -910 509 -910 54 0 90 30 106 86 7 26 11 290 11
806 0 509 4 784 11 817 13 63 44 109 89 135 32 19 54 21 287 24 319 4 354 -5
406 -101 l22 -42 0 -1850 0 -1850 -21 -40 c-49 -90 -88 -104 -299 -104 -253
-1 -369 23 -434 88 -29 29 -116 209 -450 936 -228 495 -426 916 -441 935 -15
19 -38 42 -53 50 -35 20 -93 4 -121 -33 -21 -28 -21 -34 -26 -930 l-5 -902
-22 -42 c-52 -96 -87 -105 -406 -101 -233 3 -255 5 -287 24 -46 27 -76 73 -90
137 -7 36 -10 601 -8 1862 l3 1810 21 45 c48 102 73 109 409 110 238 0 274 -2
305 -18z"/>
</g>
</svg>
